<?xml version="1.0" encoding="utf-8"?>
<!-- Generator: Adobe Illustrator 16.0.3, SVG Export Plug-In . SVG Version: 6.00 Build 0)  -->
<!DOCTYPE svg PUBLIC "-//W3C//DTD SVG 1.1//EN" "http://www.w3.org/Graphics/SVG/1.1/DTD/svg11.dtd">
<svg version="1.1" id="Layer_1" xmlns="http://www.w3.org/2000/svg" xmlns:xlink="http://www.w3.org/1999/xlink" x="0px" y="0px"
	 width="516.745px" height="79.084px" viewBox="0 0 516.745 79.084" enable-background="new 0 0 516.745 79.084"
	 xml:space="preserve">
<g>
	<path fill="#FFFFFF" d="M303.959,21.379V1.075h3.88v20.304H303.959z"/>
	<path fill="#FFFFFF" d="M310.682,21.379V6.081h3.431v1.743c1.293-1.125,2.503-2.024,3.965-2.024c2.166,0,3.291,1.097,3.291,3.937
		v11.643h-3.544V10.13c0-1.012-0.337-1.688-1.294-1.688c-0.73,0-1.547,0.703-2.306,1.378v11.559H310.682z"/>
	<path fill="#FFFFFF" d="M329.835,3.887h-1.012c-0.844,0-1.209,0.534-1.209,1.294v1.575h2.109v2.868h-2.109v11.755h-3.543V9.624
		h-1.604V6.756h1.604V5.293c0-3.543,1.49-4.499,4.077-4.499c0.506,0,1.097,0.084,1.687,0.168V3.887z"/>
	<path fill="#FFFFFF" d="M330.653,11.593c0-4.05,2.08-5.793,5.623-5.793c3.544,0,5.625,1.743,5.625,5.793v4.274
		c0,4.05-2.081,5.793-5.625,5.793c-3.543,0-5.623-1.743-5.623-5.793V11.593z M334.196,16.767c0,1.182,0.844,1.8,2.08,1.8
		c1.238,0,2.082-0.618,2.082-1.8v-6.074c0-1.181-0.844-1.8-2.082-1.8c-1.236,0-2.08,0.619-2.08,1.8V16.767z"/>
	<path fill="#FFFFFF" d="M344.154,21.379V6.081h3.459v2.024h0.056c0.816-1.519,1.885-2.306,3.656-2.306v3.824
		c-0.59-0.169-1.266-0.394-1.885-0.394c-1.152,0-1.743,0.871-1.743,1.688v10.461H344.154z"/>
	<path fill="#FFFFFF" d="M352.704,6.081h3.432v1.743c1.152-1.041,2.306-2.024,3.796-2.024c1.321,0,2.278,0.899,2.7,2.306
		c1.096-1.209,2.221-2.306,3.768-2.306c2.138,0,3.234,1.293,3.234,4.049v11.53h-3.543V9.736c0-1.013-0.365-1.294-0.928-1.294
		c-0.676,0-1.772,0.788-2.223,1.378v11.559h-3.543V9.736c0-1.013-0.394-1.294-0.956-1.294c-0.759,0-1.772,0.788-2.194,1.378v11.559
		h-3.543V6.081z"/>
	<path fill="#FFFFFF" d="M372.647,3.438V0.231h3.543v3.206H372.647z M376.19,6.081v15.298h-3.543V6.081H376.19z"/>
	<path fill="#FFFFFF" d="M379.201,21.379V6.081h3.431v1.743c1.293-1.125,2.503-2.024,3.965-2.024c2.166,0,3.291,1.097,3.291,3.937
		v11.643h-3.544V10.13c0-1.012-0.337-1.688-1.294-1.688c-0.73,0-1.547,0.703-2.306,1.378v11.559H379.201z"/>
	<path fill="#FFFFFF" d="M404.177,8.893c-0.281-0.056-0.816-0.225-1.098-0.225c-0.365,0-0.73,0.196-1.209,0.337
		c0.225,1.013,0.45,1.772,0.45,2.7c0,3.824-1.632,6.018-5.118,6.018c-0.506,0-0.928-0.027-1.463-0.196
		c-0.196,0.281-0.618,0.534-0.618,0.899c0,1.913,8.886-1.04,8.886,4.5c0,2.615-2.699,3.853-6.805,3.853
		c-3.769,0-5.85-1.068-5.85-2.784c0-1.153,1.293-1.855,2.137-2.391c-0.844-0.506-1.462-1.181-1.462-2.165
		c0-1.209,1.266-2.024,2.138-2.559c-1.716-1.125-2.307-2.757-2.307-5.315c0-3.29,1.266-5.765,5.23-5.765
		c1.463,0,3.094,0.675,3.994,1.771c0.9-1.125,1.771-1.771,3.094-1.771V8.893z M395.458,22.054c-0.365,0.365-0.73,0.675-0.73,1.237
		c0,0.788,1.152,1.125,3.234,1.125c1.687,0,2.671-0.422,2.671-1.209c0-0.507-0.226-0.731-1.294-0.815L395.458,22.054z
		 M397.089,8.668c-1.35,0-1.855,0.928-1.855,3.318c0,1.912,0.619,2.868,1.688,2.868c1.519,0,2.024-0.563,2.024-3.234
		C398.945,9.652,398.327,8.668,397.089,8.668z"/>
</g>
<g>
	<path fill="#FFFFFF" d="M303.678,34.208h3.431v1.744c1.152-1.041,2.307-2.024,3.797-2.024c1.321,0,2.277,0.899,2.699,2.306
		c1.097-1.209,2.222-2.306,3.769-2.306c2.138,0,3.233,1.293,3.233,4.049v11.53h-3.543V37.864c0-1.013-0.365-1.294-0.928-1.294
		c-0.676,0-1.771,0.788-2.222,1.378v11.559h-3.544V37.864c0-1.013-0.393-1.294-0.955-1.294c-0.76,0-1.772,0.788-2.194,1.378v11.559
		h-3.543V34.208z"/>
	<path fill="#FFFFFF" d="M322.889,39.721c0-4.05,2.081-5.793,5.624-5.793s5.625,1.743,5.625,5.793v4.274
		c0,4.05-2.082,5.793-5.625,5.793s-5.624-1.743-5.624-5.793V39.721z M326.433,44.895c0,1.182,0.843,1.8,2.08,1.8
		c1.238,0,2.081-0.618,2.081-1.8V38.82c0-1.181-0.843-1.8-2.081-1.8c-1.237,0-2.08,0.619-2.08,1.8V44.895z"/>
	<path fill="#FFFFFF" d="M336.39,49.507V34.208h3.459v2.025h0.057c0.815-1.519,1.885-2.306,3.656-2.306v3.824
		c-0.591-0.169-1.266-0.394-1.885-0.394c-1.152,0-1.744,0.871-1.744,1.688v10.461H336.39z"/>
	<path fill="#FFFFFF" d="M348.202,42.701v2.025c0,1.519,0.9,2.193,2.082,2.193c1.49,0,2.08-0.956,2.08-2.138h3.544
		c-0.169,3.149-2.053,5.006-5.624,5.006c-3.375,0-5.625-2.081-5.625-5.428v-5.006c0-3.346,2.25-5.427,5.625-5.427
		c3.29,0,5.624,2.081,5.624,5.202v3.571H348.202z M352.364,39.833v-0.844c0-1.35-0.646-2.193-2.08-2.193
		c-1.435,0-2.082,0.844-2.082,2.193v0.844H352.364z"/>
	<path fill="#FFFFFF" d="M368.454,42.701v2.025c0,1.519,0.9,2.193,2.082,2.193c1.49,0,2.08-0.956,2.08-2.138h3.544
		c-0.169,3.149-2.053,5.006-5.624,5.006c-3.375,0-5.625-2.081-5.625-5.428v-5.006c0-3.346,2.25-5.427,5.625-5.427
		c3.29,0,5.624,2.081,5.624,5.202v3.571H368.454z M372.616,39.833v-0.844c0-1.35-0.646-2.193-2.08-2.193
		c-1.435,0-2.082,0.844-2.082,2.193v0.844H372.616z"/>
	<path fill="#FFFFFF" d="M384.318,32.015h-1.013c-0.844,0-1.209,0.534-1.209,1.294v1.575h2.109v2.868h-2.109v11.755h-3.543V37.752
		h-1.604v-2.868h1.604v-1.463c0-3.543,1.49-4.499,4.078-4.499c0.506,0,1.096,0.084,1.687,0.168V32.015z"/>
	<path fill="#FFFFFF" d="M391.323,32.015h-1.013c-0.844,0-1.21,0.534-1.21,1.294v1.575h2.109v2.868h-2.109v11.755h-3.543V37.752
		h-1.603v-2.868h1.603v-1.463c0-3.543,1.49-4.499,4.078-4.499c0.506,0,1.097,0.084,1.688,0.168V32.015z"/>
	<path fill="#FFFFFF" d="M395.683,42.701v2.025c0,1.519,0.9,2.193,2.082,2.193c1.49,0,2.08-0.956,2.08-2.138h3.544
		c-0.169,3.149-2.053,5.006-5.624,5.006c-3.375,0-5.625-2.081-5.625-5.428v-5.006c0-3.346,2.25-5.427,5.625-5.427
		c3.29,0,5.624,2.081,5.624,5.202v3.571H395.683z M399.845,39.833v-0.844c0-1.35-0.646-2.193-2.08-2.193
		c-1.435,0-2.082,0.844-2.082,2.193v0.844H399.845z"/>
	<path fill="#FFFFFF" d="M413.093,39.495V38.82c0-1.181-0.843-1.8-2.08-1.8c-1.238,0-2.082,0.619-2.082,1.8v6.074
		c0,1.182,0.844,1.8,2.082,1.8c1.237,0,2.08-0.618,2.08-1.8v-0.956h3.544v0.057c0,4.05-2.081,5.793-5.624,5.793
		s-5.625-1.743-5.625-5.793v-4.274c0-4.05,2.082-5.793,5.625-5.793c3.459,0,5.539,1.687,5.596,5.567H413.093z"/>
	<path fill="#FFFFFF" d="M417.399,37.752v-2.868h1.406v-4.162h3.543v4.162h2.277v2.868h-2.277v7.817c0,0.76,0.646,1.125,1.604,1.125
		c0.252,0,0.478,0,0.703-0.027v2.98c-0.676,0.112-1.351,0.141-2.025,0.141c-2.307,0-3.824-0.844-3.824-3.037v-8.999H417.399z"/>
	<path fill="#FFFFFF" d="M426.344,31.565v-3.206h3.544v3.206H426.344z M429.888,34.208v15.299h-3.544V34.208H429.888z"/>
	<path fill="#FFFFFF" d="M437.425,44.051h0.057l2.334-9.843h3.543l-4.161,15.299h-3.487l-4.162-15.299h3.543L437.425,44.051z"/>
	<path fill="#FFFFFF" d="M447.833,42.701v2.025c0,1.519,0.9,2.193,2.08,2.193c1.491,0,2.082-0.956,2.082-2.138h3.543
		c-0.168,3.149-2.053,5.006-5.625,5.006c-3.374,0-5.623-2.081-5.623-5.428v-5.006c0-3.346,2.249-5.427,5.623-5.427
		c3.291,0,5.625,2.081,5.625,5.202v3.571H447.833z M451.995,39.833v-0.844c0-1.35-0.646-2.193-2.082-2.193
		c-1.434,0-2.08,0.844-2.08,2.193v0.844H451.995z"/>
</g>
<g>
	<path fill="#FFFFFF" d="M303.678,77.636V57.332h3.543v6.749c1.181-1.125,2.391-2.024,3.853-2.024c2.166,0,3.291,1.097,3.291,3.937
		v11.643h-3.544V66.387c0-1.012-0.337-1.688-1.294-1.688c-0.73,0-1.547,0.703-2.306,1.378v11.559H303.678z"/>
	<path fill="#FFFFFF" d="M327.612,62.337v15.299h-3.432v-1.743c-1.293,1.124-2.502,2.024-3.965,2.024
		c-2.166,0-3.29-1.097-3.29-3.938V62.337h3.543v11.249c0,1.013,0.338,1.688,1.294,1.688c0.73,0,1.547-0.703,2.306-1.378V62.337
		H327.612z"/>
	<path fill="#FFFFFF" d="M330.146,62.337h3.432v1.744c1.152-1.041,2.306-2.024,3.796-2.024c1.321,0,2.278,0.899,2.7,2.306
		c1.096-1.209,2.221-2.306,3.768-2.306c2.138,0,3.234,1.293,3.234,4.049v11.53h-3.543V65.993c0-1.013-0.365-1.294-0.928-1.294
		c-0.676,0-1.772,0.788-2.223,1.378v11.559h-3.543V65.993c0-1.013-0.394-1.294-0.956-1.294c-0.759,0-1.772,0.788-2.194,1.378v11.559
		h-3.543V62.337z"/>
	<path fill="#FFFFFF" d="M349.302,66.809c0.14-1.715,0.843-2.896,1.883-3.655c1.014-0.76,2.391-1.097,3.797-1.097
		c3.769,0,5.203,1.912,5.203,4.64v9.702c0,0.422,0.084,0.844,0.196,1.237h-3.543c-0.085-0.394-0.141-0.872-0.253-1.49
		c-1.041,1.04-2.447,1.771-4.219,1.771c-2.137,0-3.516-1.182-3.516-3.656c0-3.543,3.375-5.062,7.79-6.384v-1.124
		c0-1.322-0.815-1.828-1.827-1.828c-1.069,0-1.969,0.787-1.969,1.884H349.302z M356.641,70.155
		c-2.108,0.731-4.246,1.912-4.246,3.516c0,1.012,0.618,1.603,1.575,1.603c1.068,0,1.828-0.563,2.671-1.406V70.155z"/>
	<path fill="#FFFFFF" d="M362.887,77.636V62.337h3.431v1.744c1.293-1.125,2.503-2.024,3.965-2.024c2.166,0,3.291,1.097,3.291,3.937
		v11.643h-3.544V66.387c0-1.012-0.337-1.688-1.294-1.688c-0.73,0-1.547,0.703-2.306,1.378v11.559H362.887z"/>
	<path fill="#FFFFFF" d="M376.585,59.694v-3.206h3.543v3.206H376.585z M380.128,62.337v15.299h-3.543V62.337H380.128z"/>
	<path fill="#FFFFFF" d="M381.593,65.881v-2.868h1.405v-4.162h3.544v4.162h2.277v2.868h-2.277v7.817c0,0.76,0.646,1.125,1.603,1.125
		c0.253,0,0.478,0,0.703-0.027v2.98c-0.675,0.112-1.351,0.141-2.024,0.141c-2.307,0-3.825-0.844-3.825-3.037v-8.999H381.593z"/>
	<path fill="#FFFFFF" d="M389.778,66.809c0.14-1.715,0.843-2.896,1.883-3.655c1.014-0.76,2.391-1.097,3.797-1.097
		c3.769,0,5.203,1.912,5.203,4.64v9.702c0,0.422,0.084,0.844,0.196,1.237h-3.543c-0.085-0.394-0.141-0.872-0.253-1.49
		c-1.041,1.04-2.447,1.771-4.219,1.771c-2.137,0-3.516-1.182-3.516-3.656c0-3.543,3.375-5.062,7.79-6.384v-1.124
		c0-1.322-0.815-1.828-1.827-1.828c-1.069,0-1.969,0.787-1.969,1.884H389.778z M397.117,70.155
		c-2.108,0.731-4.246,1.912-4.246,3.516c0,1.012,0.618,1.603,1.575,1.603c1.068,0,1.828-0.563,2.671-1.406V70.155z"/>
	<path fill="#FFFFFF" d="M403.363,77.636V62.337h3.459v2.025h0.056c0.816-1.519,1.885-2.306,3.656-2.306v3.824
		c-0.59-0.169-1.266-0.394-1.885-0.394c-1.152,0-1.743,0.871-1.743,1.688v10.461H403.363z"/>
	<path fill="#FFFFFF" d="M412.363,59.694v-3.206h3.544v3.206H412.363z M415.907,62.337v15.299h-3.544V62.337H415.907z"/>
	<path fill="#FFFFFF" d="M418.581,66.809c0.14-1.715,0.843-2.896,1.883-3.655c1.014-0.76,2.391-1.097,3.797-1.097
		c3.769,0,5.203,1.912,5.203,4.64v9.702c0,0.422,0.084,0.844,0.196,1.237h-3.543c-0.085-0.394-0.141-0.872-0.253-1.49
		c-1.041,1.04-2.447,1.771-4.219,1.771c-2.137,0-3.516-1.182-3.516-3.656c0-3.543,3.375-5.062,7.79-6.384v-1.124
		c0-1.322-0.815-1.828-1.827-1.828c-1.069,0-1.969,0.787-1.969,1.884H418.581z M425.92,70.155c-2.108,0.731-4.246,1.912-4.246,3.516
		c0,1.012,0.618,1.603,1.575,1.603c1.068,0,1.828-0.563,2.671-1.406V70.155z"/>
	<path fill="#FFFFFF" d="M432.166,77.636V62.337h3.431v1.744c1.293-1.125,2.503-2.024,3.965-2.024c2.166,0,3.291,1.097,3.291,3.937
		v11.643h-3.544V66.387c0-1.012-0.337-1.688-1.294-1.688c-0.73,0-1.547,0.703-2.306,1.378v11.559H432.166z"/>
	<path fill="#FFFFFF" d="M452.054,66.809c0.14-1.715,0.843-2.896,1.883-3.655c1.014-0.76,2.391-1.097,3.797-1.097
		c3.769,0,5.203,1.912,5.203,4.64v9.702c0,0.422,0.084,0.844,0.196,1.237h-3.543c-0.085-0.394-0.141-0.872-0.253-1.49
		c-1.041,1.04-2.447,1.771-4.219,1.771c-2.137,0-3.516-1.182-3.516-3.656c0-3.543,3.375-5.062,7.79-6.384v-1.124
		c0-1.322-0.815-1.828-1.827-1.828c-1.069,0-1.969,0.787-1.969,1.884H452.054z M459.393,70.155
		c-2.108,0.731-4.246,1.912-4.246,3.516c0,1.012,0.618,1.603,1.575,1.603c1.068,0,1.828-0.563,2.671-1.406V70.155z"/>
	<path fill="#FFFFFF" d="M473.063,67.624v-0.675c0-1.181-0.843-1.8-2.081-1.8c-1.237,0-2.08,0.619-2.08,1.8v6.074
		c0,1.182,0.843,1.8,2.08,1.8c1.238,0,2.081-0.618,2.081-1.8v-0.956h3.544v0.057c0,4.05-2.082,5.793-5.625,5.793
		s-5.624-1.743-5.624-5.793V67.85c0-4.05,2.081-5.793,5.624-5.793c3.459,0,5.54,1.687,5.597,5.567H473.063z"/>
	<path fill="#FFFFFF" d="M477.341,65.881v-2.868h1.405v-4.162h3.544v4.162h2.277v2.868h-2.277v7.817c0,0.76,0.646,1.125,1.603,1.125
		c0.253,0,0.478,0,0.703-0.027v2.98c-0.675,0.112-1.351,0.141-2.024,0.141c-2.307,0-3.825-0.844-3.825-3.037v-8.999H477.341z"/>
	<path fill="#FFFFFF" d="M486.313,59.694v-3.206h3.544v3.206H486.313z M489.856,62.337v15.299h-3.544V62.337H489.856z"/>
	<path fill="#FFFFFF" d="M492.558,67.85c0-4.05,2.081-5.793,5.624-5.793c3.544,0,5.624,1.743,5.624,5.793v4.274
		c0,4.05-2.08,5.793-5.624,5.793c-3.543,0-5.624-1.743-5.624-5.793V67.85z M496.101,73.023c0,1.182,0.844,1.8,2.081,1.8
		s2.081-0.618,2.081-1.8v-6.074c0-1.181-0.844-1.8-2.081-1.8s-2.081,0.619-2.081,1.8V73.023z"/>
	<path fill="#FFFFFF" d="M506.06,77.636V62.337h3.43v1.744c1.294-1.125,2.504-2.024,3.966-2.024c2.165,0,3.29,1.097,3.29,3.937
		v11.643h-3.543V66.387c0-1.012-0.338-1.688-1.294-1.688c-0.731,0-1.547,0.703-2.306,1.378v11.559H506.06z"/>
</g>
<g>
	<path fill="#FFFFFF" d="M34.533,78.019l-12.79-31.335h-7.035v31.335H0V1.065h21.317c17.692,0,26.113,8.527,26.113,23.022
		c0,9.593-3.411,16.521-11.618,19.611l14.495,34.319H34.533z M14.708,34.533h7.567c6.501,0,10.445-3.198,10.445-10.658
		c0-7.461-3.944-10.659-10.445-10.659h-7.567V34.533z"/>
	<path fill="#FFFFFF" d="M59.258,78.019V1.065h40.289v13.004h-25.58v17.692h19.505v13.003H73.966v20.251h26.646v13.003H59.258z"/>
	<path fill="#FFFFFF" d="M107.325,78.019l19.078-76.953h18.865l18.545,76.953h-14.069l-3.73-16.2h-20.357l-4.157,16.2H107.325z
		 M128.321,48.814h14.602l-7.141-31.122h-0.213L128.321,48.814z"/>
	<path fill="#FFFFFF" d="M185.234,55.21c0,8.526,3.73,10.871,9.592,10.871c5.862,0,9.593-2.345,9.593-10.871v-5.116h14.708v3.197
		c0,18.972-10.019,25.793-24.301,25.793s-24.301-6.821-24.301-25.793V25.793C170.526,6.821,180.544,0,194.827,0
		s24.301,6.821,24.301,25.793v0.213h-14.708v-2.131c0-8.527-3.73-10.872-9.593-10.872c-5.862,0-9.592,2.345-9.592,10.872V55.21z"/>
	<path fill="#FFFFFF" d="M231.916,78.019V1.065h14.708v30.696h20.784V1.065h14.709v76.953h-14.709V44.765h-20.784v33.254H231.916z"
		/>
</g>
</svg>
